<svg width="47" height="40" viewBox="0 0 47 40" fill="none" xmlns="http://www.w3.org/2000/svg">
<path d="M44.9113 8.78734C44.2131 7.26345 43.2063 5.88252 41.9474 4.72184C40.6875 3.5577 39.2021 2.63257 37.5719 1.99677C35.8815 1.33486 34.0684 0.996063 32.238 1.00003C31.0113 1.00003 29.9462 1.28478 28.931 1.71871C26.6777 2.6818 25.2006 4.76916 23.7359 6.73376C23.6414 6.86057 23.5607 6.9536 23.5 7C23.4393 6.95359 23.3586 6.86053 23.264 6.73367C21.7994 4.76909 20.3226 2.68138 18.0696 1.71778C17.0562 1.28438 15.993 1.00003 14.7672 1.00003C12.918 1.00003 11.1262 1.33392 9.43326 1.99677C7.79765 2.63508 6.32353 3.55325 5.05776 4.72184C3.79718 5.88121 2.79019 7.26247 2.09388 8.78734C1.36983 10.3733 1 12.0574 1 13.7907C1 15.4257 1.35421 17.1295 2.05741 18.8627C2.64602 20.3112 3.48987 21.8137 4.56812 23.3309C6.27665 25.7319 9.04454 27.9615 11.9615 30.5C16.7954 34.7079 21.1638 37.8891 21.3669 38.0069L22.6014 38.7533C23.1484 39.0822 23.8516 39.0822 24.3985 38.7533L25.633 38.0069C25.8362 37.8842 30.1994 34.7079 35.0385 30.5C37.9555 27.9615 40.7233 25.7319 42.4318 23.3309C43.5101 21.8137 44.3591 20.3112 44.9425 18.8627C45.6457 17.1295 45.9999 15.4257 45.9999 13.7907C46.0052 12.0574 45.6353 10.3733 44.9113 8.78734Z" fill="#58211F" stroke="#58211F" stroke-width="1.4"/>
</svg>
