<svg width="31" height="32" viewBox="0 0 31 32" fill="none" xmlns="http://www.w3.org/2000/svg">
<rect width="31" height="32" rx="7" fill="white"/>
<path d="M23.979 11.9715C23.7091 11.39 23.3198 10.8631 22.833 10.4202C22.3458 9.97596 21.7715 9.62296 21.1411 9.38035C20.4875 9.12778 19.7865 8.9985 19.0787 9.00001C18.0857 9.00001 17.1169 9.25294 16.275 9.7307C16.0736 9.84499 15.8823 9.97052 15.701 10.1073C15.5197 9.97052 15.3284 9.84499 15.127 9.7307C14.2851 9.25294 13.3163 9.00001 12.3233 9.00001C11.6083 9.00001 10.9154 9.12742 10.2609 9.38035C9.62843 9.62391 9.05843 9.97427 8.569 10.4202C8.08158 10.8626 7.69221 11.3896 7.42297 11.9715C7.143 12.5766 7 13.2193 7 13.8806C7 14.5045 7.13696 15.1547 7.40887 15.816C7.63646 16.3687 7.96275 16.9421 8.37967 17.521C9.0403 18.4372 9.94867 19.3927 11.0766 20.3613C12.9457 21.967 14.7967 23.0761 14.8752 23.1211L15.3526 23.4059C15.564 23.5314 15.8359 23.5314 16.0474 23.4059L16.5248 23.1211C16.6033 23.0742 18.4523 21.967 20.3234 20.3613C21.4513 19.3927 22.3597 18.4372 23.0203 17.521C23.4372 16.9421 23.7655 16.3687 23.9911 15.816C24.263 15.1547 24.4 14.5045 24.4 13.8806C24.402 13.2193 24.259 12.5766 23.979 11.9715V11.9715Z" fill="white" stroke="#B5B5B5" stroke-width="1.4"/>
</svg>
