<svg width="31" height="32" viewBox="0 0 31 32" fill="none" xmlns="http://www.w3.org/2000/svg">
<rect x="0.5" y="0.5" width="30" height="31" rx="6.5" fill="white" stroke="#58211F"/>
<path d="M15.3248 12.0861C15.3423 12.0841 15.3751 12.077 15.414 12.056L14.505 11.005C14.5063 11.0038 14.5075 11.0026 14.5087 11.0014L22.0866 16.8146C22.4684 16.2906 22.7587 15.7855 22.9535 15.3138L22.9542 15.3121C23.1895 14.7467 23.3 14.2102 23.3 13.7124V13.7102C23.3016 13.1775 23.1856 12.659 22.9548 12.166C22.7321 11.6921 22.4091 11.2587 22.001 10.8917L22.0004 10.8912C21.5906 10.5219 21.1045 10.2259 20.5672 10.0215L20.5663 10.0212C20.0089 9.8083 19.4092 9.69873 18.8025 9.70001L18.801 9.70001C18.2981 9.70001 18.157 9.71454 18.0449 9.74792C17.9246 9.78373 17.8155 9.84497 17.4436 10.0538C17.4238 10.0648 17.4034 10.0763 17.3821 10.0883C17.3732 10.0961 17.3594 10.1083 17.3402 10.126C17.286 10.1761 17.2128 10.2472 17.1236 10.3362C16.9461 10.5132 16.7231 10.743 16.4963 10.9779C16.4724 11.0027 16.4485 11.0275 16.4245 11.0524C16.4405 11.0827 16.4559 11.1159 16.4693 11.1516C16.5012 11.2365 16.6214 11.6186 16.3075 11.9325C16.1794 12.0606 16.0368 12.1084 15.9543 12.1276C15.8701 12.1472 15.7984 12.1485 15.7572 12.1478C15.6768 12.1463 15.6038 12.1334 15.5701 12.1274C15.5213 12.1186 15.4919 12.1125 15.4681 12.1076C15.4382 12.1014 15.417 12.097 15.3776 12.0914C15.3526 12.0878 15.3354 12.0865 15.3248 12.0861ZM15.3248 12.0861C15.315 12.0858 15.3107 12.0863 15.3111 12.0866C15.3114 12.087 15.3163 12.0871 15.3248 12.0861ZM11.4358 19.4358L11.4359 19.4359C12.3241 20.19 13.2111 20.8298 13.8869 21.2872C14.2242 21.5155 14.5075 21.6973 14.7101 21.8241C14.8114 21.8875 14.8923 21.937 14.9495 21.9716C14.9782 21.9889 15.0007 22.0023 15.0167 22.0118C15.0343 22.0223 15.0406 22.0259 15.0389 22.0249L15.0497 22.031L15.0497 22.0311L15.5 22.2966L15.9503 22.0311L15.9504 22.0311C16.0139 21.9937 17.7808 20.9481 19.5642 19.4358C20.6369 18.5254 21.4824 17.6426 22.0865 16.8146L11.4358 19.4358ZM11.4358 19.4358C10.3632 18.5255 9.51784 17.6428 8.91368 16.8149L11.4358 19.4358ZM15.2078 11.7413C15.2077 11.7413 15.2063 11.7394 15.2039 11.7357C15.2067 11.7395 15.2079 11.7414 15.2078 11.7413ZM13.2758 9.91665C13.365 9.96251 13.4751 10.0191 13.5847 10.0746L8.04721 12.1658C8.26912 11.6919 8.5919 11.2586 9.00032 10.8923L9.00131 10.8914C9.4135 10.5203 9.89553 10.2267 10.4349 10.0215L10.4356 10.0212C10.9934 9.80817 11.5856 9.70001 12.2009 9.70001C12.7291 9.70001 12.8042 9.70722 12.8838 9.73166C12.9259 9.74461 12.9846 9.76873 13.1188 9.83626C13.1531 9.85349 13.2085 9.882 13.2758 9.91665ZM7.7 13.7124C7.7 13.1781 7.81641 12.6589 8.04719 12.1659L8.04562 15.3118C7.81048 14.7464 7.7 14.2101 7.7 13.7124ZM8.91362 16.8148C8.53273 16.2921 8.24342 15.7864 8.04577 15.3121L8.91362 16.8148Z" fill="#58211F" stroke="#58211F" stroke-width="1.4"/>
</svg>
